<?xml version="1.0" encoding="utf-8"?>
<!-- Generator: Adobe Illustrator 27.7.0, SVG Export Plug-In . SVG Version: 6.00 Build 0)  -->
<svg version="1.1" xmlns="http://www.w3.org/2000/svg" xmlns:xlink="http://www.w3.org/1999/xlink" x="0px" y="0px"
	 viewBox="0 0 100 100" style="enable-background:new 0 0 100 100;" xml:space="preserve">
<style type="text/css">
	.st0{fill:#FFFFFF;}
</style>
<g id="Layer_2">
	<circle cx="50" cy="50" r="47.5"/>
</g>
<g id="Layer_1">
	<g>
		<g>
			<path class="st0" d="M59.1,44.7c0,5.3-4.2,9.6-9.3,9.6c-5.1,0-9.3-4.3-9.3-9.6c0-5.3,4.2-9.6,9.3-9.6c0.4,0,0.8,0,1.2,0.1
				l5.3-5.3c-2-0.9-4.2-1.5-6.6-1.5c-8.8,0-16,7.3-16,16.3c0,9,7.2,16.3,16,16.3c8.8,0,16-7.3,16-16.3c0-2.3-0.5-4.4-1.3-6.4
				L59,43.7C59,44.1,59.1,44.4,59.1,44.7z M66.5,66.2c6.4-5,10.6-12.8,10.6-21.5c0-3-0.5-5.8-1.4-8.5l-1.5,1.5
				c-1.1,1.1-2.5,1.7-4.1,1.7c-0.2,0-0.3,0-0.5,0c0.5,1.7,0.7,3.5,0.7,5.4c0,11.4-9.2,20.6-20.6,20.6c-11.4,0-20.6-9.2-20.6-20.6
				c0-11.4,9.2-20.6,20.6-20.6c2.2,0,4.2,0.3,6.2,1c0-1.5,0.6-2.9,1.7-3.9l1.9-1.9c-3-1.2-6.3-1.8-9.7-1.8
				c-15,0-27.3,12.2-27.3,27.3c0,9.3,4.7,17.6,11.9,22.5l-4.5,12c-0.5,1.3,0.2,2.7,1.5,3.2c0.3,0.1,0.6,0.2,0.9,0.2
				c1,0,2-0.6,2.3-1.6l4.2-11.3c2.9,1.3,6,2,9.3,2.2V80c0,1.4,1.1,2.5,2.5,2.5s2.5-1.1,2.5-2.5v-8.3c3.2-0.4,6.3-1.4,9-2.8l4.5,11.9
				c0.4,1,1.3,1.6,2.3,1.6c0.3,0,0.6-0.1,0.9-0.2c1.3-0.5,2-1.9,1.5-3.2L66.5,66.2z"/>
			<path class="st0" d="M76.5,26.3l-4.7-1.8c-0.4-0.2-0.7-0.5-0.9-0.9L69,18.8c-0.3-0.7-0.9-1-1.5-1c-0.4,0-0.8,0.1-1.1,0.5
				l-5.8,5.8c-0.4,0.4-0.6,1.1-0.4,1.7l1.5,4l-10,10c-0.6-0.3-1.3-0.4-2-0.4c-3,0-5.4,2.4-5.4,5.4c0,3,2.4,5.4,5.4,5.4
				c3,0,5.4-2.4,5.4-5.4c0-0.7-0.1-1.4-0.4-2l9.6-9.6l5.2,2c0.2,0.1,0.4,0.1,0.6,0.1c0.4,0,0.8-0.2,1.1-0.5l5.8-5.8
				C77.8,28.1,77.6,26.7,76.5,26.3z"/>
		</g>
	</g>
</g>
</svg>
