<?xml version="1.0" encoding="utf-8"?>
<!-- Generator: Adobe Illustrator 27.7.0, SVG Export Plug-In . SVG Version: 6.00 Build 0)  -->
<svg version="1.1" xmlns="http://www.w3.org/2000/svg" xmlns:xlink="http://www.w3.org/1999/xlink" x="0px" y="0px"
	 viewBox="0 0 100 100" style="enable-background:new 0 0 100 100;" xml:space="preserve">
<style type="text/css">
	.st0{fill:#FFFFFF;}
</style>
<g id="Layer_2">
	<circle cx="50" cy="50" r="47.5"/>
</g>
<g id="Layer_1">
	<g>
		<g>
			<path class="st0" d="M27.7,50.8c0.4,0.4,1,0.7,1.6,0.7c0.6,0,1.2-0.2,1.6-0.7l3.2-3.2l3.2,3.2c0.4,0.4,1,0.7,1.6,0.7
				c0.6,0,1.2-0.2,1.6-0.7c0.9-0.9,0.9-2.3,0-3.2l-3.2-3.2l3.2-3.2c0.9-0.9,0.9-2.3,0-3.2c-0.9-0.9-2.3-0.9-3.2,0l-3.2,3.2l-3.2-3.2
				c-0.9-0.9-2.3-0.9-3.2,0c-0.9,0.9-0.9,2.3,0,3.2l3.2,3.2l-3.2,3.2C26.8,48.5,26.8,50,27.7,50.8z M53.1,52
				c1.6-1.6,2.5-3.7,2.5-5.9V35.7H51V46c0,1-0.4,2-1.1,2.7L37.3,61.4c-1.2-0.6-2.5-0.9-3.8-0.9c-4.6,0-8.4,3.8-8.4,8.4
				c0,4.6,3.8,8.4,8.4,8.4c4.6,0,8.4-3.8,8.4-8.4c0-1.6-0.5-3.1-1.2-4.3L53.1,52z M33.4,72.7c-2.1,0-3.8-1.7-3.8-3.8
				c0-2.1,1.7-3.8,3.8-3.8c2.1,0,3.8,1.7,3.8,3.8C37.2,70.9,35.5,72.7,33.4,72.7z M60.4,70.4l3.2-3.2c0.9-0.9,0.9-2.3,0-3.2
				c-0.9-0.9-2.3-0.9-3.2,0l-3.2,3.2l-3.2-3.2c-0.9-0.9-2.3-0.9-3.2,0c-0.9,0.9-0.9,2.3,0,3.2l3.2,3.2l-3.2,3.2
				c-0.9,0.9-0.9,2.3,0,3.2c0.4,0.4,1,0.7,1.6,0.7c0.6,0,1.2-0.2,1.6-0.7l3.2-3.2l3.2,3.2c0.4,0.4,1,0.7,1.6,0.7
				c0.6,0,1.2-0.2,1.6-0.7c0.9-0.9,0.9-2.3,0-3.2L60.4,70.4z"/>
			<path class="st0" d="M54.6,23.1c-0.7-0.8-1.9-0.8-2.6,0l-5.2,6c-1,1.1-0.2,2.8,1.3,2.8h10.4c1.5,0,2.3-1.7,1.3-2.8L54.6,23.1z
				 M71.1,47.4l3.2-3.2c0.9-0.9,0.9-2.3,0-3.2c-0.9-0.9-2.3-0.9-3.2,0l-3.2,3.2l-3.2-3.2c-0.9-0.9-2.3-0.9-3.2,0
				c-0.9,0.9-0.9,2.3,0,3.2l3.2,3.2l-3.2,3.2c-0.9,0.9-0.9,2.3,0,3.2c0.4,0.4,1,0.7,1.6,0.7c0.6,0,1.2-0.2,1.6-0.7l3.2-3.2l3.2,3.2
				c0.4,0.4,1,0.7,1.6,0.7c0.6,0,1.2-0.2,1.6-0.7c0.9-0.9,0.9-2.3,0-3.2L71.1,47.4z"/>
		</g>
	</g>
</g>
</svg>
