<?xml version="1.0" encoding="utf-8"?>
<!-- Generator: Adobe Illustrator 27.7.0, SVG Export Plug-In . SVG Version: 6.00 Build 0)  -->
<svg version="1.1" id="Layer_1" xmlns="http://www.w3.org/2000/svg" xmlns:xlink="http://www.w3.org/1999/xlink" x="0px" y="0px"
	 viewBox="0 0 100 100" style="enable-background:new 0 0 100 100;" xml:space="preserve">
<style type="text/css">
	.st0{fill:#FFFFFF;}
</style>
<g id="Layer_2_00000131333229978565951900000000759857882870897812_">
	<circle cx="50" cy="50" r="47.5"/>
</g>
<path class="st0" d="M79.1,60.3l-23.7-41c-1.7-3-5.5-4.1-8.6-2.3c-1,0.5-1.7,1.4-2.3,2.3l-23.6,41c-1.7,3-0.7,6.9,2.3,8.6
	c1,0.5,2.1,0.9,3.2,0.9h47.4c3.4,0,6.3-2.8,6.3-6.3C80,62.4,79.6,61.3,79.1,60.3z M47.4,30.5L47.4,30.5h5c1,0,1.8,0.9,1.8,1.8v0.1
	l-1.4,12.5c0,1-0.8,1.8-1.8,1.8h-2.1c-1,0-1.7-0.7-1.8-1.7l-1.4-12.5C45.6,31.5,46.3,30.5,47.4,30.5z M49.9,62.1
	c-2.6,0-4.6-2.1-4.6-4.6c0-2.6,2.1-4.6,4.6-4.6c2.6,0,4.6,2.1,4.6,4.6C54.5,60.1,52.5,62,49.9,62.1z"/>
</svg>
