<?xml version="1.0" encoding="utf-8"?>
<!-- Generator: Adobe Illustrator 27.7.0, SVG Export Plug-In . SVG Version: 6.00 Build 0)  -->
<svg version="1.1" xmlns="http://www.w3.org/2000/svg" xmlns:xlink="http://www.w3.org/1999/xlink" x="0px" y="0px"
	 viewBox="0 0 100 100" style="enable-background:new 0 0 100 100;" xml:space="preserve">
<style type="text/css">
	.st0{fill:#FFFFFF;}
</style>
<g id="Layer_2">
	<circle cx="50" cy="50" r="47.5"/>
</g>
<g id="Layer_1">
	<g>
		<g>
			<path class="st0" d="M79.6,45.1c-0.7-2.1-2.2-3.9-4.2-4.9c-0.9-0.5-2-0.1-2.5,0.8c-0.5,0.9-0.1,2,0.8,2.5c1.1,0.6,2,1.5,2.4,2.7
				c0.4,1.2,0.3,2.5-0.3,3.6c-0.4,0.8-1.1,1.4-2,1.7c-2.6-9.4-12.5-14.1-24.4-14.1c-4,0-7.7,0.5-11,1.6c-3.3-1.5-7.1-1.8-10.7-0.7
				c-0.9,0.3-1.3,1.3-0.9,2.1l2.2,4c-2.5,2.6-4.1,5.8-4.5,9.8l-2.1,0.3C21,55,20,56.2,20,57.7v5c0,0.8,0.4,1.6,1,2.2l3.3,2.9l0,0
				c2,1.9,4.6,3.5,7.5,4.7v6.3c0,0.8,0.7,1.5,1.5,1.5h7.7c0.7,0,1.3-0.5,1.4-1.1l0.9-3.7c2.1,0.3,4.1,0.4,6.2,0.4
				c2.1,0,4.2-0.2,6.1-0.5l0.9,3.8c0.2,0.7,0.8,1.1,1.4,1.1h7.7c0.8,0,1.5-0.7,1.5-1.5V71c4.5-3.2,7.4-8,7.4-14.4
				c0-0.5,0-0.9-0.1-1.4c0.2,0,0.4-0.1,0.6-0.1c1.8-0.6,3.3-1.9,4.1-3.6C80.1,49.5,80.3,47.3,79.6,45.1z M32.5,55.2
				c-1.2,0-2.2-1-2.2-2.2c0-1.2,1-2.2,2.2-2.2c1.2,0,2.2,1,2.2,2.2C34.7,54.2,33.7,55.2,32.5,55.2z M59.4,45.2
				c-0.3,0.8-1,1.3-1.8,1.3c-0.2,0-0.4,0-0.6-0.1c-2.7-0.9-5.9-1.2-9.3-1c-1.6,0.1-3.1,0.4-4.5,0.7c-1,0.2-2-0.4-2.2-1.4
				c-0.2-1,0.4-2,1.4-2.2c1.6-0.4,3.3-0.7,5.1-0.8c3.9-0.3,7.5,0.1,10.7,1.1C59.1,43.2,59.7,44.2,59.4,45.2z"/>
			<circle class="st0" cx="50.2" cy="26.4" r="6.6"/>
		</g>
	</g>
</g>
</svg>
