<?xml version="1.0" encoding="utf-8"?>
<!-- Generator: Adobe Illustrator 27.7.0, SVG Export Plug-In . SVG Version: 6.00 Build 0)  -->
<svg version="1.1" id="S_Add_18_N_2x" xmlns="http://www.w3.org/2000/svg" xmlns:xlink="http://www.w3.org/1999/xlink" x="0px"
	 y="0px" viewBox="0 0 36 36" style="enable-background:new 0 0 36 36;" xml:space="preserve">
<style type="text/css">
	.st0{fill:#FFFFFF;}
</style>
<path class="st0" d="M29,16h-9V7c0-0.6-0.4-1-1-1h-2c-0.6,0-1,0.4-1,1v9H7c-0.6,0-1,0.4-1,1v2c0,0.6,0.4,1,1,1h9v9c0,0.6,0.4,1,1,1
	h2c0.6,0,1-0.4,1-1v-9h9c0.6,0,1-0.4,1-1v-2C30,16.4,29.6,16,29,16z"/>
</svg>
